<?xml version="1.0" encoding="UTF-8" standalone="no"?>
<!-- Created with Inkscape (http://www.inkscape.org/) -->

<svg
   width="96.394691mm"
   height="96.608383mm"
   viewBox="0 0 96.394691 96.608383"
   version="1.1"
   id="svg1"
   xml:space="preserve"
   xmlns:inkscape="http://www.inkscape.org/namespaces/inkscape"
   xmlns:sodipodi="http://sodipodi.sourceforge.net/DTD/sodipodi-0.dtd"
   xmlns="http://www.w3.org/2000/svg"
   xmlns:svg="http://www.w3.org/2000/svg"><sodipodi:namedview
     id="namedview1"
     pagecolor="#505050"
     bordercolor="#eeeeee"
     borderopacity="1"
     inkscape:showpageshadow="0"
     inkscape:pageopacity="0"
     inkscape:pagecheckerboard="0"
     inkscape:deskcolor="#505050"
     inkscape:document-units="mm"
     inkscape:zoom="1.0242632"
     inkscape:cx="-746.87833"
     inkscape:cy="-39.540617"
     inkscape:window-width="1920"
     inkscape:window-height="1009"
     inkscape:window-x="-8"
     inkscape:window-y="-8"
     inkscape:window-maximized="1"
     inkscape:current-layer="layer1" /><defs
     id="defs1" /><g
     inkscape:label="Katman 1"
     inkscape:groupmode="layer"
     id="layer1"
     transform="translate(629.93214,132.39776)"><path
       d="m -599.37995,-87.59517 c 1.54169,0.07585 3.01644,0.968017 3.75739,2.400887 1.94037,3.752241 -1.87486,7.66715 -5.77277,5.923669 -1.69845,-0.759689 -2.33164,-1.863602 -2.33164,-4.065901 0,-2.121977 0.9012,-3.423309 2.80758,-4.052466 0.50417,-0.166393 1.02554,-0.231472 1.53944,-0.206189 z"
       style="fill:#ffffff;stroke-width:1.65377"
       id="path32" /><path
       d="m -565.65953,-87.599821 c 1.5225,0 2.05857,0.24473 3.10782,1.419035 1.68904,1.89035 1.71216,3.966984 0.0646,5.775358 -1.47238,1.616001 -3.3594,2.008506 -5.19245,1.080554 -2.61914,-1.325888 -3.13347,-4.566409 -1.08779,-6.855912 1.04925,-1.174305 1.58531,-1.419035 3.10782,-1.419035 z"
       style="fill:#ffffff;stroke-width:1.65377"
       id="path31" /><path
       d="m -579.80905,-132.3635 c -1.46829,-0.0554 -2.95167,-0.0439 -4.44676,0.0367 -22.66201,1.22098 -41.62902,18.64722 -45.0882,41.425382 -3.55723,23.42372 9.28428,45.521656 31.39963,54.031844 v 10e-4 c 1.51222,0.581911 2.88311,1.067264 3.04632,1.079004 0.68777,0.04957 3.74592,-9.502848 5.38159,-16.810343 0.92975,-4.153717 2.84202,-15.50788 2.85202,-16.9323 10e-4,-0.15996 -1.52384,-0.418762 -3.38894,-0.575159 -12.25841,-1.027971 -22.82849,-4.051576 -28.02981,-8.018115 -2.82517,-2.154483 -3.56489,-5.379263 -1.86501,-8.129736 1.62623,-2.631287 7.20799,-5.666001 13.45913,-7.317383 3.3242,-0.878165 3.64493,-1.061551 4.0442,-2.313037 0.2385,-0.7476 1.52697,-5.086497 2.86287,-9.641787 1.33589,-4.55529 2.49411,-8.34749 2.57401,-8.42739 0.0798,-0.0798 1.30812,3.82182 2.72955,8.67027 l 2.58433,8.81548 10.03918,0.01292 c 5.74589,0.0081 10.08442,-0.157468 10.14512,-0.387573 0.49659,-1.883868 5.01467,-16.995847 5.10977,-17.090947 0.0677,-0.0677 1.41149,4.24503 2.98586,9.58443 l 2.86236,9.70845 4.08244,1.18339 c 5.61492,1.627848 9.98972,3.87481 12.1884,6.260083 1.57025,1.703525 1.81229,2.231141 1.81229,3.954281 0,1.72628 -0.24172,2.250415 -1.83038,3.973917 -3.79572,4.117868 -13.34271,7.380445 -25.6191,8.755021 -3.55373,0.397908 -6.53082,0.78547 -6.61562,0.86093 -0.28623,0.254634 0.84235,7.808432 2.1239,14.215153 1.22812,6.139636 3.59448,14.664337 4.99556,17.996317 0.66849,1.589724 0.69463,1.602819 2.32492,1.162203 0.90682,-0.245089 3.2849,-1.207638 5.28495,-2.138887 14.16971,-6.597601 24.14275,-19.300443 27.46138,-34.979261 1.07419,-5.075045 1.07419,-14.615234 0,-19.690271 -4.78331,-22.598676 -23.44165,-38.444196 -45.46596,-39.274606 z"
       style="fill:#ffffff;stroke-width:1.65377"
       id="path30"
       inkscape:export-filename="path30.png"
       inkscape:export-xdpi="96"
       inkscape:export-ydpi="96" /></g></svg>
